<?xml version="1.0" encoding="utf-8"?>
<!-- Generator: Adobe Illustrator 23.0.3, SVG Export Plug-In . SVG Version: 6.00 Build 0)  -->
<svg version="1.1" id="Calque_1" xmlns="http://www.w3.org/2000/svg" xmlns:xlink="http://www.w3.org/1999/xlink" x="0px" y="0px"
	 viewBox="0 0 1004 364" style="enable-background:new 0 0 1004 364;" xml:space="preserve">
<style type="text/css">
	.st12{fill:#898989;}
</style>
<path class="st0" d="M152.2,174.5c2-0.5,3.4-0.8,4.7-1.3c6.1-2.2,11.5-1.4,16,3.4c3.9,4.2,5,9.2,2.6,14.3c-2.8,6.2-8.2,9.1-14.9,9.1
	c-15.9,0-28.9-16.1-26.7-32.7c2.1-15.4,14.3-25.2,32.3-26.1c15.2-0.8,26.7,6.6,33,21.7c5,12,6.1,24.6,3.8,37.3
	c-2.6,13.9-11.8,22.8-24.2,28.4c-24.6,11.1-52.9,3.7-66.3-17.7c-7.8-12.4-10.2-26.2-8.6-40.7c2.6-24.2,13.2-43.1,36.7-52.7
	c11.4-4.7,23.6-5.8,35.8-4.8c24.9,2.2,41.6,16.1,51,38.4c8.9,21.1,9.5,43.3,2.7,65.1c-8.4,26.8-27.8,42.4-55,48.1
	c-32.8,6.9-61.2-2-84.3-26c-17.2-17.9-23.1-40.5-21.5-64.9c2.8-42.9,27.4-69.2,65.3-85.1c6.2-2.6,10.1-1.2,12.7,4.5
	c2.5,5.4,1,8.4-5,12.1c-10.2,6.1-21,11.6-30.3,19c-31.9,25.3-34.5,87.3,6,113c23.2,14.7,54.8,14.8,76.2-0.9c10-7.3,16.2-17,19-29
	c3.2-13.2,3.1-26.4,0-39.6c-6.3-26.3-27.1-39.9-53.7-35.9c-21.7,3.3-35,16.5-36.8,41.5c-0.4,5.1-0.2,10.4,0.8,15.4
	c4.5,20.8,22.2,31.1,42.7,25c14.4-4.2,20.6-13,19-27.8c-0.7-6-2.1-12.2-4.5-17.7c-3.2-7.3-9-9.4-17-7.8
	C155.8,161.6,153.3,164.5,152.2,174.5z"/>
<path d="M357,194.7c0.6,0.2,1,0.4,1.3,0.5c3,0.5,8.4,0.5,8.6,1.6c1,4.8,0.6,9.9,0.4,14.9c0,0.6-1.7,1.5-2.6,1.5
	c-12.8,0.1-25.6,0.1-38.7,0.1c0-5.9,0-11.3,0-17c3.1-0.3,6.2-0.6,9.4-0.9c0-10.4,0-20.5,0-30.9c-3.2-0.2-6.1-0.3-9.4-0.5
	c0-5.6,0-11,0-17.4c3.2,0,6.4,0,9.7,0c5,0,10,0,15-0.2c3.5-0.2,6.5,0,6.2,5.6c14.9-8.8,28.9-10.7,41.4,3.5c2.2-1.6,4.4-3.4,6.7-4.9
	c8.1-5.3,16.9-6.7,26.3-4.2c9.8,2.6,15.7,11.3,16.1,23.8c0.3,8.1,0,16.3,0,24.6c1,0.3,1.8,0.6,2.5,0.7c7,0.8,7,0.8,7,7.7
	c0,10.1,0,10.1-10,10.1c-5.3,0-10.7-0.2-16,0.1c-3.8,0.2-5.3-1.1-5.2-5.1c0.2-10.8,0.1-21.7,0.1-32.5c0-5.4-1.4-10.2-6.8-12.2
	c-5.5-2-10.5,0-14.6,4c-1,1-1.9,2.5-2,3.8c-0.2,7.6-0.1,15.3-0.1,22.7c0.6,0.4,0.8,0.7,1.1,0.8c8,1.1,8,1.1,8.1,9.4
	c0,2.6,0,5.3,0,8.9c-9.6,0-19,0.1-28.5-0.2c-0.8,0-2.3-2.9-2.3-4.4c-0.2-10.7-0.2-21.3-0.1-32c0-5.4-1.3-10.1-6.4-12.5
	c-5.4-2.5-10.5-0.6-14.9,2.9c-1.3,1-2.3,3-2.4,4.6C356.9,179.1,357,186.8,357,194.7z"/>
<path d="M722.1,210.1c-9.7,4.7-19.6,4.9-29.4,0.6c-14.6-6.5-23.1-23.3-19.6-38.7c3.8-16.8,18.1-28.5,35-27.1
	c10.4,0.8,20.7,1.7,31.1,1.6c1.1,0,3.1,2.1,3.1,3.1c-0.1,22.8,0.1,45.6-1.1,68.4c-0.6,11.7-8.9,19.2-19.7,22.8
	c-14.1,4.6-27.9,2.9-41.1-4c-2.9-1.5-3.4-3-1.5-5.8c2.2-3.1,3.1-8,6-9.4c2.3-1.1,6.5,2.3,10,2.7c6,0.7,12.2,1.5,18.1,0.6
	C719.7,223.9,723.3,217,722.1,210.1z M722.9,179c0.1-10.7-4.9-16.3-14.3-16.3c-9.2,0-15.9,6.8-15.9,16.2s7.1,16.9,16.1,16.9
	C717.5,195.8,722.8,189.5,722.9,179z"/>
<path d="M581.6,165.2c-0.2-5.5-0.5-11-0.4-16.5c0-0.7,2-2,3.1-2c8.3-0.2,16.6-0.3,25-0.1c1.1,0,3.1,1.6,3.2,2.5
	c0.3,4.8,0.2,9.5,0.2,14.5c-11.6-0.1-15,10-22.9,15.6c7,5.8,11.4,13.6,20.2,16.4c1.1,0.3,2.5,1.9,2.6,3c0.4,4,0.4,8,0.2,12
	c0,0.9-1.4,2.4-2.2,2.4c-9.5,0.2-18.9,0.1-28.8,0.1c-0.3-6.6-2.7-13,2.5-18.7c-6-7.1-7.4-7.1-14.5-0.5c4.8,5.2,2.3,11.6,2.7,17.5
	c0,0.5-2,1.6-3,1.6c-8.3,0.2-16.7,0.3-25,0.1c-1.2,0-3.3-1.8-3.4-2.9c-0.4-4.6-0.2-9.3-0.2-13.8c7.9-1.6,15.9-7.6,23-17.7
	c-7.9-4.3-10.5-16.1-22.8-14.6c0-5.7,0-11.3,0-17.7c5,0,10.1,0,15.2,0c4,0,8,0.3,12,0c3.6-0.3,4.8,1.2,4.4,4.6
	c-0.5,4.2-1.3,8.5-1.1,12.7c0.1,1.9,1.8,4,3.4,5.3c0.8,0.7,3.1,0.4,4.3-0.1c1.4-0.6,2.5-2.1,3.7-3.2
	C582.4,165.6,582,165.4,581.6,165.2z"/>
<path d="M482.7,184c2,8.7,8.2,14.1,17,13.8c5.7-0.2,11.5-1.5,17.1-3.1c3-0.9,4.4-0.5,5.3,2.2c0.2,0.5,0.4,0.9,0.7,1.3
	c5.7,9.2,6.7,8.6-4.9,13.4c-12.8,5.3-26,5.6-38.5-1.8c-12.2-7.2-18.8-24.3-15.3-38.8c3.8-15.7,15.7-26,31.2-27.1
	c20.4-1.4,34.1,10,36.3,30.6c1.1,10.2,3.4,9.6-8.5,9.5C509.8,184,496.5,184,482.7,184z M511.1,169.9c-3.5-8.5-7.8-11-16.3-9.9
	c-5.2,0.6-10,5-10.8,9.9C492.8,169.9,501.6,169.9,511.1,169.9z"/>
<path d="M786.7,195.2c2.7,0.2,5,0.7,7.3,0.4c5.2-0.7,6.9,1.3,6.4,6.3c-0.4,3.4-0.1,6.9-0.1,10.9c-2,0.2-3.6,0.4-5.2,0.4
	c-11.7,0-23.3,0-35,0.1c-3.2,0-4.5-1-4.3-4.3c0.3-4.1,0.1-8.3,0.1-12.7c3.4-0.3,6.5-0.6,10-0.9c0-10.3,0-20.4,0-31c-3.1,0-6,0-9.3,0
	c0-6.1,0-11.6,0-17.5c9.6,0,18.7,0,27.8,0c3.3,5,6.8,0.9,10.5,0.6c7.4-0.7,14.9-0.2,22.9-0.2c0,7,0.1,13.9-0.1,20.8
	c0,1-1.8,2.6-3,2.8c-3.1,0.4-6.3,0.1-9.5,0.2c-3.3,0.1-6-0.1-6.1-4.4c0-0.8-1.2-2.1-2-2.3c-3.9-1-10.1,3.3-10.2,7.4
	C786.5,179.2,786.7,186.9,786.7,195.2z"/>
<path d="M928.8,196.2c3.6-0.3,6.7-0.5,10-0.8c0-21.7,0-42.9,0-64.4c-3.3-0.2-6.3-0.4-9.7-0.5c0-5.8,0-11.2,0-17.3
	c9.5,0,18.9-0.1,28.3,0.2c0.8,0,2,2.7,2,4.2c0.1,10.7-0.2,21.3-0.2,32c-0.1,13-0.1,26-0.1,39c-0.1,7.3-0.1,7.3,7.3,7.3
	c1,0,1.9,0.2,3.1,0.4c0,5.6,0,11,0,17.1c-10.4,0-20.5,0-30.6,0c-10,0-10,0-10-10C928.8,201,928.8,198.7,928.8,196.2z"/>
<path d="M878.1,196.3c3.9-0.3,7-0.6,10.3-0.9c0-21.6,0-42.8,0-63.9c-0.4-0.2-0.7-0.5-1-0.5c-9.5-0.6-9.5-0.6-9.4-10.4
	c0-2.3,0-4.6,0-7.1c10.3,0,20,0,30.3,0c0,27.1,0,54.2,0,81.5c1.5,0.3,2.6,0.5,3.7,0.6c7.1,0.6,7.1,0.6,7.1,7.5c0,3.1,0,6.3,0,10.3
	c-3.2,0-6,0-8.7,0c-9.5,0-19-0.1-28.5-0.1c-3,0-4.2-1.1-4-4.1C878.3,205,878.1,200.8,878.1,196.3z"/>
<path d="M661.3,213.2c-3.8,0-7.4,0-11,0c-8,0-16-0.1-24,0c-3.3,0.1-4.9-0.9-4.6-4.6c0.3-4,0.1-7.9,0.1-12.4c3.4-0.4,6.5-0.7,9.8-1
	c0-10.4,0-20.5,0-31c-3.1-0.2-6.1-0.3-9.6-0.5c0-5-0.1-10,0.1-14.9c0-0.9,1.9-2.3,2.9-2.3c8-0.2,16-0.2,24-0.3
	c3.6,0,3.2,2.6,3.2,4.9c-0.1,12.8-0.1,25.7-0.2,38.5c0,1.6,0,3.3,0,4.8c3.3,1.1,7.4,1.2,8.8,3.3c1.5,2.2,0.5,6.1,0.5,9.3
	C661.4,208.9,661.3,210.7,661.3,213.2z"/>
<path d="M838.5,164.2c-3.4,0-6.2,0-9.4,0c0-5.7,0-11.3,0-17.7c6.1,0,12.2,0,18.2,0c11.7-0.1,11.6-0.1,11.6,11.8
	c0,12.1,0,24.2,0,36.1c0.4,0.3,0.5,0.5,0.6,0.5c9,1.4,9,1.4,8.7,10.8c-0.1,2.3,0,4.6,0,7.3c-13.5,0-26.3,0-39.5,0
	c0-5.7,0-11.1,0-16.7c3.4-0.4,6.5-0.7,9.7-1.1C838.5,184.9,838.5,174.8,838.5,164.2z"/>
<path class="st0" d="M248.5,162.2c0,3.4-0.4,6.9,0.1,10.3c0.9,6.9,7,12.3,13.6,12.4c5.9,0.1,12.7-5.4,14.1-11.5
	c1.6-6.6-2.8-13.4-9.4-14.7c-3.8-0.7-7.7,0.1-9,3.6c-1.2,3.4-1.6,8-0.4,11.3c1.4,3.7,5.8,2.7,8.8,1.2c1.3-0.7,1.6-3.2,2.4-4.9
	c-0.5-0.2-1-0.4-1.6-0.7c-0.3,0.5-0.5,1.2-1,1.4c-1.7,0.9-3.5,1.6-5.3,2.5c-0.8-1.9-2.2-3.7-2.1-5.5c0.1-1.5,1.5-3.8,2.9-4.3
	c4.6-1.7,9.7,0.7,11.2,4.7c1.8,4.9,0.1,9.1-4.7,11.6c-8.3,4.3-15.9,0.3-17-9.1c-1.3-11,9.1-19.3,19.4-15.6c6.7,2.4,12,9.8,11.8,16.4
	c-0.3,7.4-7.5,15.6-14.9,17.7c-14.3,4-26.6-9-23.6-23.3c0.3-1.7,2-3.1,3.1-4.6C247.5,161.5,248,161.9,248.5,162.2z"/>
<path class="st0" d="M251.3,118.2c-0.8,3.1-1.4,5.7-2,8.3c-0.6,0.3-1.2,0.5-1.7,0.8c-0.3-0.8-0.5-1.6-0.9-2.3
	c-1.5-2.2-5.6-3.4-3.3-7.3c1.9-3.2,7.6-4.5,11.3-2.9c5,2.3,6.6,8,3.4,12.5c-3.5,4.8-9.5,7.3-13.8,5.6c-5.3-2.1-9.3-10.1-8.1-16.3
	c1.2-6.1,5.3-10.8,10.4-11.4c7.4-0.8,14,0.8,18.4,7.4c5.6,8.4,2.2,21.1-6.8,26.5c-8.6,5.2-21.4,1.9-26.2-6.8
	c-1.3-2.3-2.1-4.9-2.6-7.5c-0.3-1.4,0.4-2.9,0.7-4.4c1.1,1,2.5,1.8,3.3,3c1.4,2.3,2.1,4.9,3.5,7.1c3.2,5,10.8,7.4,16.3,5.3
	c6.2-2.3,9.6-9,8.6-16.8c-0.6-4.6-5.3-8.8-10.8-9.4c-4.3-0.5-7.9,0.4-9.6,5.1c-1.3,3.8,0,10.4,2.9,12.3c3.5,2.4,6.6,0.5,8.9-1.9
	C255.7,122.5,253.8,120.2,251.3,118.2z"/>
<path class="st0" d="M197.8,91c2.5,2.8,4.3,4.6,6,6.5c6.4,7.3,18.8,6.4,23.6-1.8c2.6-4.3,2-13-1-16.5c-3.7-4.2-9.9-5.3-15.6-2.9
	c-4.3,1.8-4.8,5.3-4,9.1c0.9,4.1,2.3,8.2,7.3,9c3.7,0.5,6.5-2.3,6.7-6.3c0.2-3-1.1-4.2-4.3-3.9c0.1,1,0.3,1.8,0.3,2.6
	c-0.1,1.4-0.3,2.9-0.5,4.3c-1.7-0.5-4.4-0.5-4.8-1.4c-0.9-2.3-1.8-5.8-0.7-7.5c2.2-3.6,6.4-3.7,10.3-2.6c3.6,1.1,5.4,3.5,5.5,7.4
	c0,5.4-3.9,11.2-8.8,12.8c-4,1.3-9.3-1-12.5-5.4c-4.3-5.9-5.2-12.5-2.2-17.1c3.7-5.7,11.3-8,19.7-6.1c5.6,1.3,10.2,6.5,11,12.8
	c1,7.8,0.4,15.2-6.9,20c-7,4.6-14.5,4.8-21.7,0.8C200.4,102.3,197.2,98.3,197.8,91z"/>
<path class="st0" d="M108.8,82.5c3.9-0.5,8-0.8,11.8-1.7c7.4-1.8,11.8-10.3,9.6-17.8c-2-7-9.8-11.6-16.9-9.9
	c-6.1,1.5-10.5,9.2-8.5,14.9c1.4,4.2,8.5,7,13.2,4.9c1.6-0.7,2.8-2.5,4.2-3.7c-0.3-0.4-0.7-0.7-1-1.1c-0.7,0.3-1.5,0.5-2,1
	c-2.9,2.3-5.8,5.3-9,0.4c-2.8-4.2-1.6-9.8,2.7-12.2c3.5-1.9,7.1-1.9,10.3,0.7c4.3,3.5,4.6,8.3,3.6,13.2c-0.9,4.3-4.4,6-8.3,6.8
	c-7.3,1.4-14.5-1.5-17.4-6.9c-2.9-5.5-1.2-13,4.3-18.6c4.8-4.9,12.9-6,19.4-2.8c8.8,4.3,13.4,14.3,10.6,22.9
	c-2.9,9-13.3,15.2-22.6,13.4c-1.5-0.3-2.9-1.6-4.4-2.4C108.5,83.2,108.6,82.8,108.8,82.5z M120.3,67.2c0.6-0.8,1.3-1.5,1.9-2.3
	c-1.7-1.4-3.5-2.8-5.3-4c-0.1-0.1-1.6,1.8-1.6,1.8C117,64.2,118.7,65.7,120.3,67.2z"/>
<path class="st0" d="M249.1,204.8c-0.6,2.5-0.8,3.9-1.3,5.2c-2.9,7.5-0.5,15.2,6,19.1c6.1,3.7,13.4,2.1,18.7-4
	c3.2-3.6,3.2-7.8,1.7-11.7c-1.6-4.4-5.3-8-10-7.8c-2.8,0.2-6.6,2.8-7.9,5.4c-1.3,2.6-0.8,6.9,0.7,9.6c0.8,1.4,5.3,1.2,8,0.7
	c0.8-0.1,1.1-3.5,1.7-5.8c-1.7,0.1-2.1,0-2.3,0.2c-1.5,1.1-3.1,2.3-4.6,3.5c-0.8-1.4-2.6-3.3-2.2-4.2c0.9-2,3-5.1,4.3-5
	c3,0.3,7.1,1.6,8.3,3.8c1.3,2.4,1,7-0.4,9.5c-2.5,4.6-9.4,5.5-14.3,3c-5-2.6-7.3-7.5-5.5-13c1.8-5.8,5.2-10.7,11.4-12.1
	c6.1-1.4,11.1,1.2,14.8,6.1c4.1,5.4,5.7,11.3,2.6,17.7c-3.6,7.6-15.1,12.7-23.4,10.5c-7.9-2.1-14.5-11.7-13.7-20.4
	C242.2,211.1,242.9,206.9,249.1,204.8z"/>
<path class="st0" d="M239.3,242.6c-2.8,3-4.9,4.9-6.6,7.1c-4.4,5.5-4.1,12.9,0.6,18.8c3.5,4.4,12,5.9,17.5,3.1
	c6.9-3.5,8.9-12.8,4.2-18.9c-3.5-4.4-8.8-4.5-14.5-0.2c-3.3,2.5-3.7,6.6-0.4,10c1.4,1.4,4.4,2.2,6.5,1.9c1.2-0.2,2-3.2,3.3-5.5
	c-1.8,0-2.1-0.1-2.4,0c-2.3,0.7-4.7,1.4-7,2c1.1-2.3,2.1-4.8,3.5-7c1.9-2.9,4.2-2,6.4-0.2c3.6,2.9,4.8,8.8,2.6,12.1
	c-2.9,4.4-8,5.7-12.7,3.2s-7.4-6.1-7.1-11.6c0.3-4.8,5.3-10.4,10.6-12.2c5.5-1.8,11.4-0.2,15,4.1c8.5,10.3,3,25.4-10.2,27.7
	c-14.4,2.6-24.5-5.9-23.6-19.9c0.4-6.3,4.2-10.7,9.1-14.2C234.8,242.3,236.7,242.8,239.3,242.6z"/>
<path class="st0" d="M209.5,270.9c-3.3,0.9-6.8,1.6-10,2.9c-6.9,2.7-10.9,11.4-8.5,17.6c2.8,7.1,11.1,11.7,17.6,9.7
	c5.9-1.8,9.8-8.9,8.1-14.7c-1.5-5.1-6.7-7.7-13-5.9c-1.7,0.5-4.1,2.7-4,4.1c0.2,2.9,1.1,6.4,2.9,8.4c1.8,2,5.1-0.5,5.6-3.8
	c-2.4-0.5-4.8-0.9-7.2-1.4c-0.1-0.5-0.2-1-0.3-1.5c2.5-1.6,5-3.2,7.7-4.9c3.7,2.7,5.9,5.9,4.6,10.3c-1.3,4.3-4.8,6.5-9,6.8
	c-4.7,0.3-7.1-3-8.6-7c-2.4-6.4-0.9-11.4,4.2-14.3c6.2-3.5,15.6-2,19.7,3.1c4.2,5.2,4.2,12.5,0.1,18.6c-4.4,6.4-12.4,9.3-19.8,7
	c-7.8-2.4-14.6-11.3-14.3-18.6c0.5-9.1,7.5-17.4,16.4-18.8c2.5-0.4,5.2,0.3,7.7,0.5C209.6,269.6,209.6,270.3,209.5,270.9z"/>
<path class="st0" d="M70.4,87.8c1.4-0.8,2.9-1.6,4.6-2.5c2.6,3.5,1.2,5.9-1.7,7.9c-2.9,2-5.3,1.3-7.2-1.5c-2.7-3.8-2.5-8.3,0.7-11.3
	c3.5-3.2,9.5-3.6,12.7-0.6c3.6,3.3,5.8,7.8,3.9,12.1c-1.5,3.4-4.9,6.8-8.3,8.3c-5.7,2.5-11.9,1.8-16.5-3.3c-4.6-5.1-4-11.1-1.7-16.9
	c2.4-6,6.6-9.8,13.5-10.1c10.6-0.4,19.2,4.8,21.2,13c2.4,9.7-1.9,19-11,23.3c-2.3,1.1-5,1.2-7.5,1.8c-0.3-0.7-0.6-1.4-0.9-2.1
	c1.9-1.1,3.8-2.4,5.8-3.4c7.4-3.7,11.2-12,8.5-19.2C84.2,77,75.5,73.1,68,75c-5,1.3-6.6,5.2-7.4,9.6c-0.7,4.4-0.1,8.4,4.2,10.8
	c4,2.3,7.9,1.4,11.1-1.3c1.3-1.1,2.3-3.7,2.1-5.5c-0.4-2.3-1.9-4.5-3.4-6.3c-0.4-0.5-3,0.1-4,0.9c-0.9,0.8-1,2.6-1.5,3.9
	C69.5,87.5,69.9,87.7,70.4,87.8z"/>
<path class="st0" d="M60.9,217.4c-1-2-2.3-3.8-3.1-5.9c-2.4-6.7-7.7-10.9-14.4-11c-7.6-0.1-14.3,6.8-14.5,14.8
	c-0.1,6.4,5.8,11.9,12.9,11.9c4.5,0,7.8-2,9-6.4s0.1-8.7-3.6-11c-1.7-1.1-5.2-0.1-7.6,0.7c-1.1,0.4-2.4,3-2.1,4.2
	c0.4,1.5,2.4,2.5,4.7,4.6c0-4.2,0-6.5,0-9.3c5.8,2.7,8,6.5,6.4,9.8c-1.5,3.3-7.6,4.6-11.6,2.5c-4.3-2.2-6.2-8-4-12
	c2.4-4.5,8-7.4,13.1-6.4s8,4.3,9.3,9.3c2.3,9.2-2.5,17.3-10.9,18.5c-10.1,1.5-19.8-5.6-20.4-15.1c-0.7-9.7,7.9-20,17-20.6
	c12.3-0.8,21.3,6.7,21.8,18.1c0,0.8-0.2,1.6-0.4,2.4C62,217,61.5,217.2,60.9,217.4z"/>
<path class="st0" d="M35.7,171.8c0.8-2.5,1.5-4.5,2.1-6.5c4.3,1.7,5.9,4.9,4.4,8.1c-1.4,3-6.5,5.1-9,3c-2.3-2-4.6-5.1-5-8
	c-0.3-2.3,1.9-5.6,3.9-7.2c4-3.3,10.8-2.6,14.3,0.7c3.6,3.4,4.4,10.7,1.8,15.3c-4.4,7.6-12.2,10.6-19,7.4
	c-7.7-3.7-11.8-13.9-8.7-21.6c3.8-9.3,16.9-14.7,26-10.8c9.2,4,14,16.5,9.5,25.9c-0.9,1.8-2.9,3.2-4.3,4.7c-0.5-0.4-1-0.7-1.5-1.1
	c0.7-2.7,1.4-5.3,2.1-8c1.5-6.2-0.9-12.5-6.2-16.3c-4.4-3.2-10.4-2.9-15.9,0.8c-3.9,2.6-5.9,6.2-5.7,11c0.3,4.9,2.7,8.5,7,10.8
	c4,2.2,7.8,1.1,11-2.9c2.8-3.6,3-8.4,0.5-11.5c-2.4-2.9-6.4-3.2-9.2-0.1C31.7,167.7,32.5,169.8,35.7,171.8z"/>
<path class="st0" d="M161.5,284.1c-4.1,0-8.3-0.3-12.4,0.1c-5.7,0.4-10.9,5.7-11.7,11.4c-0.9,6.2,3.4,13.5,9.5,16
	c5.1,2.1,11,0.7,14-4.4c1.6-2.8,2.5-7.4,1.2-10.1s-5.3-4.9-8.6-5.8c-3.6-1-6.1,1.7-7.6,6.6c2-1.1,3.1-2,4.3-2.3
	c2.1-0.5,4.8-1.4,6.3-0.5c1.6,0.9,3.2,4.1,2.7,5.7c-0.8,2.7-2.7,5.9-5.1,7.1c-2.2,1.1-5.9,0.7-8.3-0.3c-3.7-1.6-5.8-9.5-4-14
	c1.6-4.2,4.9-6.5,9.7-6.6c8.3-0.1,14,3.3,16.4,9.7c2.1,5.7-0.3,12.3-6,16.7c-6.2,4.7-14.4,5.3-20,1.4c-7.6-5.2-11.5-15.5-8.5-22.6
	c4-9.6,13.4-14.6,23.6-12.3c1.8,0.4,3.5,1.7,5.2,2.6C162,283,161.8,283.5,161.5,284.1z M148.1,299c-0.4,0.9-0.8,1.9-1.2,2.8
	c1.6,0.8,3.2,1.7,4.9,2.1c0.4,0.1,1.2-1.8,1.9-2.8C151.8,300.4,149.9,299.7,148.1,299z"/>
<path class="st0" d="M161.9,64.8c1.4-4.2,2.9-8.4,8.6-7.9c4.4,0.4,7.6,2.5,8.8,6.9c1.3,4.8-0.7,10.1-4.7,12.7
	c-4.2,2.7-8.2,2.2-11.9-1c-1.9-1.6-3.6-3.4-5.2-5.3c-3.1-3.6-4.8-7.6-2.4-12.3c2.6-5.1,6.3-8.5,12.2-9c8.1-0.8,14.3,2.2,17.5,9.6
	c3,6.8,5,14.1-0.5,20.7c-5.1,6.1-11.7,8.1-19.3,6c-5.2-1.4-8.7-4.9-9.7-10.9c2.4,1.5,4.9,2.9,7.3,4.5c5,3.2,10.1,3.1,14.9-0.2
	c5.1-3.5,5.1-8.5,4.1-13.8c-1.1-5.5-3.8-10.2-9.6-10.7c-3.5-0.3-7.8,1-10.8,3.1c-2.8,1.9-2.4,5.6,0.1,8.4c1.8,2.2,3.3,4.8,5.5,6.5
	c1.1,0.8,4.9,0.4,5.1-0.2c0.9-2.6,1.3-5.6,1-8.4c-0.1-1-2.6-1.7-4-2.5c-0.3,0.5-0.6,0.9-1,1.4c1,1.3,2.1,2.4,2.8,3.8
	c0.5,1,0.4,2.2,0.6,3.3c-1.2,0.2-2.7,0.8-3.4,0.4C165.8,68.3,163.9,66.4,161.9,64.8z"/>
<path class="st0" d="M44.1,127.2c1.2-1,2.2-2.3,3.5-3c0.9-0.5,2.3-0.6,3.2-0.2c0.6,0.3,1.2,2,0.9,2.6c-1.3,2.2-2.6,4.8-4.7,5.9
	c-1.3,0.7-4.9-0.1-5.6-1.3c-1.7-3-3.6-6.9-2.8-9.8c0.7-2.5,4.5-5.3,7.4-6c4.6-1.1,8.9,1,11.4,5.4c4.1,7.1-0.6,16.8-9.1,19.3
	c-8.8,2.6-16-1.5-18.4-10.4c-2.6-9.7,2.8-19.1,12.2-21.3c15.2-3.7,26.6,6,24.3,21.4c-0.6,4.2-4.2,8-6.7,11.8
	c-0.6,0.8-2.7,0.6-4.1,0.9c-0.2-0.4-0.5-0.8-0.7-1.2c1.3-1.8,2.9-3.5,3.7-5.5c1.3-3.3,2.7-6.7,2.9-10.2c0.4-5.4-2-10.1-7-12.3
	c-5.6-2.4-11.6-1.6-16.6,2c-4.4,3.2-4.4,8.4-2.9,12.8c1,3.1,4.3,7.3,6.8,7.4c3.5,0.2,7.7-2.2,10.7-4.7c3.2-2.7,1.8-8.2-2.2-9.9
	c-1.9-0.8-4.7-0.8-6.4,0.2c-1.1,0.6-0.9,3.6-1.2,5.5C43.2,126.9,43.7,127.1,44.1,127.2z"/>
<path class="st0" d="M99.8,291.8c-1.9-1-3.8-2.1-7.3-4c3.2-1.1,5.4-2.8,7-2.3c2.2,0.7,4.7,2.7,5.7,4.8c0.7,1.5-0.3,4.6-1.7,6.1
	c-3.1,3.3-7.3,4.3-11.3,1.8c-4.1-2.5-4.8-6.6-3.8-11c1.3-5.5,4.8-8.7,9.9-9c7.2-0.5,14.7,5.6,15.6,12.7c1,7.9-4.3,14.5-12.9,16.2
	c-10.3,2-17.8-3-20.6-13.8c-3-11.6,3.7-18.9,12.2-21.9c6.3-2.2,12.6-1.7,18,2.6c1.6,1.3,2.5,3.6,3.7,5.5c-0.4,0.3-0.8,0.6-1.2,1
	c-2.3-1.3-4.5-2.7-6.9-3.8c-6.8-3.4-15.2-1.7-19.5,3.8c-3.5,4.6-2.6,13.9,2,19c3.6,3.9,8.1,4.4,12.8,2.6c3.9-1.5,7.1-4.2,7.1-8.7
	c0-5-3.2-8.3-7.2-10.7c-3.2-1.9-5.7,0.4-6.9,3c-1,2.1-1.2,4.9-0.7,7.2c0.1,0.7,3.5,0.8,5.3,1.2C99.4,293.2,99.6,292.5,99.8,291.8z"
	/>
<path class="st0" d="M63.9,260.7c0-3.3,0-5.4,0-7.4c2,0.6,4.8,0.6,5.6,1.8c1.2,1.8,1.9,5.1,1,6.9c-1.9,4-8.3,5.1-11.8,2.7
	c-4.4-3-5.5-8.8-2.6-13.3c4.9-7.4,14.4-7.7,19.6-0.6c3.6,4.9,4.3,12.1,1.5,16.5c-4.1,6.6-10.4,7.8-17.5,6.7
	c-6.2-0.9-11.6-6.1-13-12.3c-2.1-9.4,3-19.9,11-22.8c9.8-3.6,19.9,0,24.8,9.2c1,1.8,1.2,4.1,1.8,6.1c-0.5,0.3-1,0.5-1.5,0.8
	c-1.4-1.6-2.8-3.4-4.3-4.9c-2.6-2.5-5.1-5.4-8.2-7c-5-2.4-10.4-1.4-14.4,2.3c-4.7,4.3-5.3,10.3-3.8,16.2c1.2,4.9,5.2,7.2,10,7.9
	c4.4,0.6,8.2-0.7,10.8-4.7c2.5-3.7,1.2-7-0.7-10.3c-3.5-5.9-9.2-5.9-12.5,0.1c-0.6,1.1-0.6,3.3,0.1,4.1
	C60.7,259.9,62.6,260.2,63.9,260.7z"/>
<path d="M653.7,125.1c0,6.2-5.2,11.2-11.6,11.2c-5.8,0-11.2-5.3-11.3-11.1c-0.1-5.9,5.6-11.5,11.6-11.4
	C648.9,113.9,653.7,118.7,653.7,125.1z"/>
<path d="M860.5,124.7c0.1,6.4-4.7,11.4-11.1,11.6c-6.1,0.2-11.6-5.1-11.6-11.1c0-6.1,4.9-11.1,10.9-11.2
	C855.6,113.9,860.4,118.3,860.5,124.7z"/>
<g>
	<path d="M768.9,229.3v3.3h-4.4V246h-4.1v-13.4H756v-3.3H768.9z"/>
	<path d="M781.3,243h-6.2l-1,3h-4.3l6-16.7h4.7l6,16.7h-4.3L781.3,243z M780.3,239.9l-2.1-6.1l-2,6.1H780.3z"/>
	<path d="M788.8,233.2c0.7-1.3,1.7-2.3,3-3s2.7-1.1,4.3-1.1c2,0,3.7,0.5,5.1,1.6c1.4,1,2.4,2.5,2.8,4.3h-4.5
		c-0.3-0.7-0.8-1.2-1.4-1.6s-1.3-0.5-2.1-0.5c-1.3,0-2.3,0.4-3,1.3c-0.8,0.9-1.2,2-1.2,3.5s0.4,2.6,1.2,3.5s1.8,1.3,3,1.3
		c0.8,0,1.5-0.2,2.1-0.5c0.6-0.4,1.1-0.9,1.4-1.6h4.5c-0.5,1.8-1.4,3.2-2.8,4.3c-1.4,1-3.1,1.6-5.1,1.6c-1.6,0-3.1-0.4-4.3-1.1
		s-2.3-1.7-3-3s-1.1-2.8-1.1-4.4S788.1,234.5,788.8,233.2z"/>
	<path d="M810.2,245.1c-1.3-0.7-2.3-1.8-3.1-3.1s-1.2-2.8-1.2-4.4c0-1.6,0.4-3.1,1.2-4.4c0.8-1.3,1.8-2.3,3.1-3s2.7-1.1,4.3-1.1
		s3,0.4,4.3,1.1c1.3,0.7,2.3,1.7,3.1,3s1.1,2.8,1.1,4.4c0,1.6-0.4,3.1-1.1,4.4c-0.8,1.3-1.8,2.3-3.1,3.1s-2.7,1.1-4.3,1.1
		C812.9,246.2,811.5,245.8,810.2,245.1z M817.7,241.1c0.8-0.9,1.2-2.1,1.2-3.5c0-1.5-0.4-2.7-1.2-3.5c-0.8-0.9-1.9-1.3-3.2-1.3
		s-2.4,0.4-3.2,1.3c-0.8,0.9-1.2,2.1-1.2,3.5c0,1.5,0.4,2.7,1.2,3.5c0.8,0.9,1.9,1.3,3.2,1.3C815.8,242.4,816.9,242,817.7,241.1z"/>
	<path d="M828.1,245.6c-1-0.4-1.7-1-2.3-1.8s-0.9-1.7-0.9-2.8h4.3c0.1,0.6,0.3,1.1,0.6,1.4c0.4,0.3,0.8,0.5,1.4,0.5
		c0.6,0,1.1-0.1,1.4-0.4c0.3-0.3,0.5-0.7,0.5-1.2c0-0.4-0.1-0.8-0.4-1c-0.3-0.3-0.6-0.5-1-0.7s-1-0.4-1.7-0.6c-1.1-0.3-2-0.7-2.6-1
		c-0.7-0.3-1.3-0.8-1.8-1.5s-0.7-1.5-0.7-2.5c0-1.6,0.6-2.8,1.7-3.7c1.1-0.9,2.6-1.3,4.4-1.3c1.8,0,3.3,0.4,4.5,1.3
		c1.1,0.9,1.7,2.1,1.8,3.7h-4.4c0-0.5-0.2-1-0.6-1.3c-0.4-0.3-0.8-0.5-1.4-0.5c-0.5,0-0.9,0.1-1.2,0.4s-0.5,0.6-0.5,1.1
		s0.3,1,0.8,1.3s1.3,0.6,2.4,1c1.1,0.4,2,0.7,2.6,1c0.7,0.3,1.3,0.8,1.7,1.5c0.5,0.6,0.7,1.5,0.7,2.5s-0.2,1.8-0.7,2.6
		s-1.2,1.4-2.1,1.9s-2,0.7-3.3,0.7C830.1,246.2,829,246,828.1,245.6z"/>
	<path d="M857.8,246l-1.5-1.5c-1.5,1.2-3.4,1.8-5.5,1.8c-1.3,0-2.4-0.2-3.4-0.6c-1-0.4-1.7-1-2.2-1.8s-0.8-1.7-0.8-2.7
		s0.3-2,0.8-2.8c0.6-0.8,1.4-1.5,2.5-2.1c-0.4-0.5-0.7-1-0.9-1.5s-0.3-1-0.3-1.5c0-0.8,0.2-1.5,0.6-2.2c0.4-0.7,1-1.2,1.8-1.5
		c0.8-0.4,1.7-0.6,2.8-0.6s2,0.2,2.8,0.6s1.3,0.9,1.7,1.6c0.4,0.7,0.6,1.4,0.5,2.2H853c0-0.4-0.1-0.8-0.3-1s-0.5-0.3-0.9-0.3
		s-0.7,0.1-1,0.3s-0.4,0.5-0.4,0.9c0,0.3,0.1,0.7,0.3,1c0.2,0.4,0.6,0.8,1,1.3l4.1,4c0-0.1,0.1-0.2,0.1-0.3c0.1-0.1,0.1-0.2,0.2-0.4
		l0.9-1.5h4.1l-1.1,2.1c-0.4,0.9-0.9,1.8-1.5,2.7l4,4h-4.7V246z M853.7,242.1l-3.7-3.6c-1.1,0.6-1.7,1.4-1.7,2.4
		c0,0.6,0.2,1.1,0.7,1.5s1.1,0.6,1.9,0.6C851.9,243,852.9,242.7,853.7,242.1z"/>
	<path d="M881.5,238.9c0.6,0.8,0.9,1.6,0.9,2.6c0,1.4-0.5,2.5-1.5,3.3s-2.3,1.2-4.1,1.2H869v-16.7h7.5c1.7,0,3,0.4,4,1.2
		s1.4,1.8,1.4,3.2c0,1-0.3,1.8-0.8,2.5s-1.2,1.1-2.1,1.4C880.1,237.6,880.9,238.1,881.5,238.9z M873.1,236h2.7
		c0.7,0,1.2-0.1,1.5-0.4c0.4-0.3,0.5-0.7,0.5-1.3s-0.2-1-0.5-1.3c-0.4-0.3-0.9-0.5-1.5-0.5h-2.7V236z M877.7,242.2
		c0.4-0.3,0.6-0.8,0.6-1.3s-0.2-1-0.6-1.4c-0.4-0.3-0.9-0.5-1.6-0.5h-3v3.7h3C876.8,242.7,877.3,242.5,877.7,242.2z"/>
	<path d="M888.7,229.3v10c0,1,0.2,1.8,0.7,2.3s1.2,0.8,2.2,0.8s1.7-0.3,2.2-0.8s0.8-1.3,0.8-2.3v-10h4.1v10c0,1.5-0.3,2.8-1,3.8
		s-1.5,1.8-2.6,2.3s-2.3,0.8-3.6,0.8s-2.5-0.3-3.5-0.8s-1.9-1.3-2.5-2.3s-0.9-2.3-0.9-3.8v-10H888.7z"/>
	<path d="M910,246l-3.5-6.3h-1v6.3h-4.1v-16.7h6.8c1.3,0,2.4,0.2,3.4,0.7c0.9,0.5,1.6,1.1,2.1,1.9c0.5,0.8,0.7,1.7,0.7,2.7
		c0,1.1-0.3,2.1-0.9,3c-0.6,0.9-1.6,1.5-2.8,1.9l3.9,6.6L910,246L910,246z M905.5,236.8h2.5c0.7,0,1.3-0.2,1.7-0.5s0.6-0.9,0.6-1.5
		s-0.2-1.1-0.6-1.5s-0.9-0.5-1.7-0.5h-2.5V236.8z"/>
	<path d="M921.1,229.3V246H917v-16.7H921.1z"/>
	<path d="M936,229.3v3.3h-4.4V246h-4.1v-13.4h-4.4v-3.3H936z"/>
	<path d="M941.7,245.1c-1.3-0.7-2.3-1.8-3.1-3.1s-1.2-2.8-1.2-4.4c0-1.6,0.4-3.1,1.2-4.4c0.8-1.3,1.8-2.3,3.1-3s2.7-1.1,4.3-1.1
		s3,0.4,4.3,1.1c1.3,0.7,2.3,1.7,3.1,3s1.1,2.8,1.1,4.4c0,1.6-0.4,3.1-1.1,4.4c-0.8,1.3-1.8,2.3-3.1,3.1s-2.7,1.1-4.3,1.1
		C944.4,246.2,943,245.8,941.7,245.1z M949.2,241.1c0.8-0.9,1.2-2.1,1.2-3.5c0-1.5-0.4-2.7-1.2-3.5c-0.8-0.9-1.9-1.3-3.2-1.3
		s-2.4,0.4-3.2,1.3c-0.8,0.9-1.2,2.1-1.2,3.5c0,1.5,0.4,2.7,1.2,3.5c0.8,0.9,1.9,1.3,3.2,1.3C947.3,242.4,948.4,242,949.2,241.1z"/>
	<path d="M959.5,245.6c-1-0.4-1.7-1-2.3-1.8s-0.9-1.7-0.9-2.8h4.3c0.1,0.6,0.3,1.1,0.6,1.4c0.4,0.3,0.8,0.5,1.4,0.5
		c0.6,0,1.1-0.1,1.4-0.4c0.3-0.3,0.5-0.7,0.5-1.2c0-0.4-0.1-0.8-0.4-1c-0.3-0.3-0.6-0.5-1-0.7s-1-0.4-1.7-0.6c-1.1-0.3-2-0.7-2.6-1
		c-0.7-0.3-1.3-0.8-1.8-1.5s-0.7-1.5-0.7-2.5c0-1.6,0.6-2.8,1.7-3.7c1.1-0.9,2.6-1.3,4.4-1.3c1.8,0,3.3,0.4,4.5,1.3
		c1.1,0.9,1.7,2.1,1.8,3.7h-4.4c0-0.5-0.2-1-0.6-1.3c-0.4-0.3-0.8-0.5-1.4-0.5c-0.5,0-0.9,0.1-1.2,0.4s-0.5,0.6-0.5,1.1
		s0.3,1,0.8,1.3s1.3,0.6,2.4,1c1.1,0.4,2,0.7,2.6,1c0.7,0.3,1.3,0.8,1.7,1.5c0.5,0.6,0.7,1.5,0.7,2.5s-0.2,1.8-0.7,2.6
		s-1.2,1.4-2.1,1.9s-2,0.7-3.3,0.7C961.6,246.2,960.5,246,959.5,245.6z"/>
</g>
</svg>
